<?xml version="1.0" encoding="utf-8"?>
<!-- Generator: Adobe Illustrator 22.1.0, SVG Export Plug-In . SVG Version: 6.00 Build 0)  -->
<svg version="1.1" id="Isolation_Mode" xmlns="http://www.w3.org/2000/svg" xmlns:xlink="http://www.w3.org/1999/xlink" x="0px"
	 y="0px" viewBox="0 0 360 75.7" style="enable-background:new 0 0 360 75.7;" xml:space="preserve">
<style type="text/css">
	.st0{fill:#FFFFFF;}
</style>
<g>
	<g>
		<g>
			<path class="st0" d="M341.4,17.9c-4.3,0-7.8,1.1-10.4,3.4c-1.6,1.3-3.6,3.8-5.8,7.5v-9.5h-13.7v54.7h14.4V47.8
				c0-4.4,0.6-7.6,1.7-9.7c2-3.8,5.8-5.6,11.6-5.6c0.4,0,1,0,1.7,0.1c0.7,0,1.5,0.1,2.4,0.2V18C342.7,17.9,342.2,17.9,341.4,17.9z"
				/>
		</g>
		<g>
			<rect x="0.1" y="19.2" class="st0" width="14.5" height="54.7"/>
		</g>
		<g>
			<path class="st0" d="M59.2,26.1c-1.6-2.6-3.7-4.6-6.3-6.1c-2.6-1.5-5.5-2.2-8.8-2.2c-7.2,0-13,2.7-17.3,8
				c-4.3,5.4-6.4,12.7-6.4,22c0,8.1,2.2,14.7,6.5,19.9c4.4,5.2,9.8,7.8,16.2,7.8c3.9,0,7.1-0.7,9.7-2.2c2.6-1.5,4.9-3.8,7-7.1v7.6
				h13.9V0H59.2V26.1z M56.4,59.1c-2.1,3-5.2,4.5-9.2,4.5c-4,0-7.1-1.5-9.1-4.5c-2-3-3-7.1-3-12.1c0-4.7,1-8.6,2.9-11.8
				c2-3.2,5-4.7,9.2-4.7c2.7,0,5.2,0.9,7.2,2.6c3.4,2.9,5.1,7.7,5.1,14.4C59.6,52.1,58.6,56.1,56.4,59.1z"/>
		</g>
		<g>
			<path class="st0" d="M129.2,28.5c-2.5-3.7-5.6-6.4-9.5-8.1c-3.8-1.7-8.1-2.6-12.9-2.6c-8,0-14.5,2.5-19.6,7.6
				c-5,5-7.5,12.3-7.5,21.7c0,10.1,2.8,17.3,8.4,21.8c5.6,4.5,12,6.7,19.3,6.7c8.8,0,15.7-2.6,20.6-7.9c3.2-3.3,4.9-6.6,5.3-9.8
				h-14.6c-0.8,1.6-1.8,2.9-2.9,3.7c-2,1.7-4.7,2.5-7.9,2.5c-3.1,0-5.7-0.7-7.9-2.1c-3.6-2.2-5.5-6-5.7-11.5h39.9
				c0.1-4.7-0.1-8.3-0.5-10.8C132.9,35.5,131.5,31.7,129.2,28.5z M94.5,41.2c0.5-3.5,1.8-6.4,3.8-8.4c2-2.1,4.9-3.1,8.5-3.1
				c3.4,0,6.2,1,8.5,2.9c2.3,2,3.6,4.8,3.8,8.6H94.5z"/>
		</g>
		<g>
			<path class="st0" d="M188.4,70.2c-0.5-0.7-0.7-1.9-0.8-3.8c-0.1-2.5-0.1-4.6-0.1-6.3V34.9c0-6.6-2.3-11.1-7-13.5
				c-4.7-2.4-10-3.6-16-3.6c-9.2,0-15.8,2.4-19.6,7.2c-2.4,3.1-3.7,7-4,11.8h13.8c0.3-2.1,1-3.8,2-5c1.4-1.7,3.9-2.5,7.3-2.5
				c3.1,0,5.4,0.4,7,1.3c1.6,0.8,2.4,2.4,2.4,4.6c0,1.8-1,3.2-3.1,4.1c-1.1,0.5-3.1,0.9-5.7,1.3l-4.9,0.6c-5.6,0.7-9.8,1.9-12.6,3.5
				c-5.2,3-7.8,7.9-7.8,14.6c0,5.2,1.6,9.2,4.9,12c3.2,2.8,7.4,4.2,12.3,4.2c3.9,0,7.4-0.9,10.5-2.7c2.6-1.5,4.9-3.3,6.9-5.5
				c0.1,1.2,0.2,2.3,0.4,3.3c0.2,1,0.5,2,0.9,3.1h15.6v-2.1C189.6,71.4,188.9,70.8,188.4,70.2z M173.2,52.6
				c-0.1,4.8-1.5,8.1-4.1,9.9c-2.6,1.8-5.5,2.7-8.6,2.7c-2,0-3.6-0.5-5-1.6c-1.4-1.1-2.1-2.9-2.1-5.3c0-2.7,1.1-4.8,3.4-6.1
				c1.3-0.8,3.5-1.4,6.6-2l3.3-0.6c1.6-0.3,2.9-0.6,3.8-1c0.9-0.4,1.9-0.8,2.8-1.4V52.6z"/>
		</g>
		<g>
			<path class="st0" d="M226.5,18c-4,0-7.3,0.8-9.9,2.5c-2.2,1.3-4.2,3.3-6,5.8V0h-14.3v73.9h14.1V67c1.9,2.7,3.7,4.6,5.4,5.6
				c2.8,1.8,6.4,2.7,11,2.7c7.2,0,12.9-2.8,16.9-8.4c4-5.6,6.1-12.6,6.1-21.1c0-8.2-2-14.9-6.1-20.1C239.5,20.6,233.8,18,226.5,18z
				 M231.6,59.1c-2.1,3-4.9,4.5-8.7,4.5c-4.3,0-7.5-1.5-9.6-4.6c-2.1-3.1-3.1-7-3.1-11.7c0-4,0.5-7.2,1.5-9.7
				c2-4.7,5.6-7.1,10.8-7.1c5.2,0,8.7,2.4,10.6,7.2c1,2.5,1.5,5.8,1.5,9.6C234.7,52.2,233.7,56.1,231.6,59.1z"/>
		</g>
		<g>
			<path class="st0" d="M303.6,70.2c-0.5-0.7-0.8-1.9-0.9-3.8c-0.1-2.5-0.1-4.6-0.1-6.3V34.9c0-6.6-2.3-11.1-7-13.5
				c-4.7-2.4-10-3.6-16-3.6c-9.2,0-15.8,2.4-19.6,7.2c-2.4,3.1-3.7,7-4,11.8h13.8c0.3-2.1,1-3.8,2-5c1.4-1.7,3.9-2.5,7.3-2.5
				c3.1,0,5.4,0.4,6.9,1.3c1.6,0.8,2.4,2.4,2.4,4.6c0,1.8-1,3.2-3.1,4.1c-1.1,0.5-3.1,0.9-5.7,1.3l-4.9,0.6
				c-5.6,0.7-9.8,1.9-12.6,3.5c-5.2,3-7.8,7.9-7.8,14.6c0,5.2,1.6,9.2,4.9,12c3.2,2.8,7.4,4.2,12.4,4.2c3.9,0,7.4-0.9,10.5-2.7
				c2.6-1.5,4.9-3.3,6.9-5.5c0.1,1.2,0.2,2.3,0.4,3.3c0.2,1,0.5,2,0.9,3.1h15.6v-2.1C304.8,71.4,304.1,70.8,303.6,70.2z M288.4,52.6
				c-0.1,4.8-1.5,8.1-4.1,9.9c-2.6,1.8-5.5,2.7-8.6,2.7c-2,0-3.6-0.5-5-1.6c-1.4-1.1-2.1-2.9-2.1-5.3c0-2.7,1.1-4.8,3.4-6.1
				c1.3-0.8,3.5-1.4,6.6-2l3.3-0.6c1.6-0.3,2.9-0.6,3.8-1c0.9-0.4,1.9-0.8,2.8-1.4V52.6z"/>
		</g>
	</g>
	<path class="st0" d="M360,65.9c0,5.4-4.3,9.7-9.7,9.7c-5.4,0-9.7-4.3-9.7-9.7c0-5.4,4.3-9.7,9.7-9.7C355.7,56.2,360,60.6,360,65.9"
		/>
</g>
</svg>
