<?xml version="1.0" encoding="utf-8"?>
<!-- Generator: Adobe Illustrator 23.0.1, SVG Export Plug-In . SVG Version: 6.00 Build 0)  -->
<svg version="1.1" id="Capa_1" xmlns="http://www.w3.org/2000/svg" xmlns:xlink="http://www.w3.org/1999/xlink" x="0px" y="0px"
	 viewBox="0 0 424 512" style="enable-background:new 0 0 424 512;" xml:space="preserve">
<style type="text/css">
	.st0{fill:#F27179;}
</style>
<g>
	<g>
		<path class="st0" d="M212,165c-50.2,0-91,40.8-91,91c0,17.7,5.1,34.2,13.8,48.1c0.3,0.5,0.6,1,0.9,1.5
			C152,330.5,180.1,347,212,347c50.2,0,91-40.8,91-91S262.2,165,212,165z M146.3,282.8c-3.4-8.3-5.3-17.3-5.3-26.8
			c0-39.1,31.8-71,71-71c24,0,45.2,11.9,58,30.2l-54.9,54.9l-21-21c-3.9-3.9-10.2-3.9-14.1,0L146.3,282.8z M212,327
			c-22.3,0-42.2-10.3-55.2-26.4l30.3-30.3l21,21c3.9,3.9,10.2,3.9,14.1,0l57.3-57.3c2.3,6.9,3.5,14.3,3.5,22
			C283,295.1,251.1,327,212,327z"/>
	</g>
</g>
<g>
	<g>
		<path class="st0" d="M365.8,249.1c-1.6-48.9-15.2-96.8-39.8-139.2C299.9,64.8,262.2,27.3,217,1.3c-3.1-1.8-6.9-1.8-9.9,0
			C161.9,27.2,124.2,64.8,98,109.9c-24.5,42.4-38.2,90.3-39.8,139.2C23.1,264.1,0,298.8,0,337.4V408c0,5.5,4.5,10,10,10h146.9
			c2.2,30.1,15.3,58.9,36.9,80.1l11.2,11c1.9,1.9,4.5,2.9,7,2.9s5.1-1,7-2.9l11.2-11c21.6-21.2,34.7-50.1,36.9-80.1H298v51.6
			c0,5.5,4.5,10,10,10s10-4.5,10-10V418h96c5.5,0,10-4.5,10-10v-70.6C424,298.8,400.9,264.1,365.8,249.1z M212,21.6
			c31.4,18.9,58.3,43.7,79.6,72.4H132.4C153.7,65.3,180.6,40.5,212,21.6z M20,398v-60.6c0-27.5,14.8-52.4,38-65.8V388
			c0,3.5,0.6,6.9,1.7,10H20z M216.1,483.9L212,488l-4.1-4.1c-17.8-17.5-28.7-41.1-30.9-65.9h70C244.9,442.7,233.9,466.4,216.1,483.9
			z M346,388c0,5.5-4.5,10-10,10H88c-5.5,0-10-4.5-10-10V258.6c0-36.2,7.2-71.5,20.4-104.1h45.3c5.5,0,10-4.5,10-10s-4.5-10-10-10
			h-36.2c3.5-7,7.3-13.8,11.4-20.5H305c26.3,42.9,40.9,92.8,40.9,144.6V388H346z M404,398h-39.7c1.1-3.1,1.7-6.5,1.7-10V271.5
			c23.2,13.4,38,38.3,38,65.8V398z"/>
	</g>
</g>
<g>
	<g>
		<path class="st0" d="M187.1,137.4c-1.9-1.9-4.4-2.9-7.1-2.9s-5.2,1.1-7.1,2.9s-2.9,4.4-2.9,7.1s1.1,5.2,2.9,7.1s4.4,2.9,7.1,2.9
			s5.2-1.1,7.1-2.9c1.9-1.9,2.9-4.4,2.9-7.1S188.9,139.3,187.1,137.4z"/>
	</g>
</g>
<g>
	<g>
		<path class="st0" d="M116,444.8c-5.5,0-10,4.5-10,10v30.8c0,5.5,4.5,10,10,10s10-4.5,10-10v-30.8C126,449.2,121.5,444.8,116,444.8
			z"/>
	</g>
</g>
<g>
	<g>
		<path class="st0" d="M315.1,494.9c-1.9-1.9-4.4-2.9-7.1-2.9s-5.2,1.1-7.1,2.9c-1.9,1.9-2.9,4.4-2.9,7.1s1.1,5.2,2.9,7.1
			c1.9,1.9,4.4,2.9,7.1,2.9s5.2-1.1,7.1-2.9c1.9-1.9,2.9-4.4,2.9-7.1S316.9,496.8,315.1,494.9z"/>
	</g>
</g>
</svg>
